<svg id="visual" viewBox="0 0 1500 600" width="1500" height="600" xmlns="http://www.w3.org/2000/svg" xmlns:xlink="http://www.w3.org/1999/xlink" version="1.1"><rect x="0" y="0" width="1500" height="600" fill="#051a1c"></rect><path d="M0 383L41.7 369.7C83.3 356.3 166.7 329.7 250 317.8C333.3 306 416.7 309 500 309.8C583.3 310.7 666.7 309.3 750 308.2C833.3 307 916.7 306 1000 298.2C1083.3 290.3 1166.7 275.7 1250 290.7C1333.3 305.7 1416.7 350.3 1458.3 372.7L1500 395L1500 601L1458.3 601C1416.7 601 1333.3 601 1250 601C1166.7 601 1083.3 601 1000 601C916.7 601 833.3 601 750 601C666.7 601 583.3 601 500 601C416.7 601 333.3 601 250 601C166.7 601 83.3 601 41.7 601L0 601Z" fill="#bbddcc"></path><path d="M0 491L41.7 470.2C83.3 449.3 166.7 407.7 250 412.2C333.3 416.7 416.7 467.3 500 478.2C583.3 489 666.7 460 750 456.7C833.3 453.3 916.7 475.7 1000 476.2C1083.3 476.7 1166.7 455.3 1250 440.5C1333.3 425.7 1416.7 417.3 1458.3 413.2L1500 409L1500 601L1458.3 601C1416.7 601 1333.3 601 1250 601C1166.7 601 1083.3 601 1000 601C916.7 601 833.3 601 750 601C666.7 601 583.3 601 500 601C416.7 601 333.3 601 250 601C166.7 601 83.3 601 41.7 601L0 601Z" fill="#ffffff"></path></svg>